<?xml version="1.0" encoding="UTF-8"?>
<svg width="381px" height="152px" viewBox="0 0 381 152" version="1.1" xmlns="http://www.w3.org/2000/svg" xmlns:xlink="http://www.w3.org/1999/xlink">
    <!-- Generator: Sketch 59.1 (86144) - https://sketch.com -->
    <desc>Created with Sketch.</desc>
    <g id="Page-1" stroke="none" stroke-width="1" fill="none" fill-rule="evenodd">
        <g id="H-D-Login" transform="translate(-389.000000, -691.000000)">
            <g id="Bayes-Logo-SVG" transform="translate(388.000000, 691.000000)">
                <g id="Group-3" transform="translate(0.000000, 51.730740)" fill="#2BE2AD">
                    <path d="M28.3375,4.19426 L14.8861,31.79726 C14.6449,32.19686 14.4163,32.60906 14.2075,33.03386 L2.9989,56.03786 L0.9991,60.13826 L14.9185,99.79946 L16.9165,95.69906 L30.3679,68.09606 C30.6109,67.69826 30.8395,67.28786 31.0465,66.86126 L42.2569,43.85546 L44.2531,39.75506 L30.3355,0.09386 L28.3375,4.19426 Z" id="Fill-1"></path>
                </g>
                <g id="Group-6" transform="translate(26.200000, 0.330740)" fill="#16BC90">
                    <path d="M82.56276,121.56336 C82.56636,121.55976 82.56996,121.55976 82.57536,121.55616 L71.83476,90.94896 L70.65036,90.94896 L68.20236,90.94896 L62.12556,90.94896 L60.94296,90.94896 L58.49676,90.94896 C58.34016,90.94896 58.20156,90.84996 58.14936,90.70236 L45.88776,55.76436 L45.56016,54.83016 L45.49536,54.64296 L45.20196,53.80956 L31.28256,14.14836 L29.99196,10.46916 C27.25956,2.68236 18.73116,-1.41624 10.94436,1.31616 C3.15756,4.05036 -0.94104,12.57876 1.79136,20.36556 L12.87036,51.93396 L26.56296,90.94896 L26.78976,91.59516 L27.10836,92.50596 L37.93536,123.35256 C37.98576,123.50016 38.12616,123.59916 38.28096,123.59916 L47.99016,123.59916 L55.37196,123.59916 L59.17356,123.59916 L64.16496,123.59916 L64.76976,123.59916 L65.07756,123.59916 L65.23056,123.59916 L68.88096,123.59916 L73.56996,123.59916 L73.87236,123.59916 L74.47896,123.59916 L74.93796,123.59916 L83.27736,123.59916 L82.56276,121.56336 Z" id="Fill-4"></path>
                </g>
                <path d="M149.62924,67.91606 L165.63664,67.91606 C173.81764,67.91606 178.71004,64.71386 178.71004,58.84406 C178.71004,53.33066 173.81764,50.04026 165.63664,50.04026 L149.62924,50.04026 L149.62924,67.91606 Z M149.62924,40.79186 L165.63664,40.79186 C172.30564,40.79186 176.30884,37.67966 176.30884,32.43266 C176.30884,27.18386 172.30564,24.33986 165.63664,24.33986 L149.62924,24.33986 L149.62924,40.79186 Z M166.16944,15.00146 C179.06464,15.00146 187.06924,20.86946 187.06924,30.56426 C187.06924,37.58966 182.88964,42.83666 176.13064,44.43866 C184.48984,45.86066 189.47044,51.82046 189.47044,60.17786 C189.47044,70.85006 180.84304,77.25266 166.79224,77.25266 L139.13344,77.25266 L139.13344,15.00146 L166.16944,15.00146 Z" id="Fill-7" fill="#787878"></path>
                <path d="M229.57894,60.62372 L229.57894,56.26592 L216.77194,56.26592 C210.10294,56.26592 206.98894,58.04432 206.98894,62.57852 C206.98894,66.84812 210.45754,69.60572 216.14914,69.60572 C223.44094,69.60572 229.04434,65.78072 229.57894,60.62372 L229.57894,60.62372 Z M229.66714,71.47232 C226.28854,75.65372 220.86334,77.69852 214.01614,77.69852 C203.78674,77.69852 197.38234,71.38592 197.38234,63.02492 C197.38234,54.39752 203.87674,48.88592 215.25994,48.79592 L229.57894,48.79592 L229.57894,47.37212 C229.57894,41.41412 225.75394,37.85732 218.28394,37.85732 C213.74794,37.85732 209.03374,39.45752 204.31954,42.65972 L200.14174,35.54432 C206.72074,31.63112 211.52494,29.58632 220.50694,29.58632 C232.69114,29.58632 239.54014,35.81072 239.62834,46.21652 L239.71654,77.25392 L229.66714,77.25392 L229.66714,71.47232 Z" id="Fill-9" fill="#787878"></path>
                <path d="M270.57718,83.74598 C267.64138,91.21598 262.30618,94.95278 255.19078,94.95278 C250.92298,94.95278 247.54258,93.70538 244.25218,90.94958 L248.60998,83.03498 C250.83298,84.63518 252.61138,85.34618 254.74618,85.34618 C257.85838,85.34618 260.34958,83.65778 261.95158,80.10098 L263.54998,76.54238 L243.98578,29.94038 L254.56798,29.94038 L268.70878,65.78198 L281.87038,29.94038 L292.09798,29.94038 L270.57718,83.74598 Z" id="Fill-11" fill="#787878"></path>
                <path d="M330.16096,50.0399 C329.80636,42.3917 324.73576,37.7675 316.99936,37.7675 C309.52936,37.7675 304.28236,42.4817 303.12676,50.0399 L330.16096,50.0399 Z M339.05296,57.5117 L303.30316,57.5117 C304.90336,64.8035 310.50676,69.3395 317.97676,69.3395 C323.13556,69.3395 327.84796,67.3829 331.31836,63.8261 L336.74176,69.6059 C332.11576,74.6765 325.35676,77.6087 317.17756,77.6087 C302.59216,77.6087 292.98736,67.9157 292.98736,53.6867 C292.98736,39.3677 302.85856,29.6765 316.91116,29.5865 C333.54136,29.5865 340.30036,40.4369 339.05296,57.5117 L339.05296,57.5117 Z" id="Fill-13" fill="#787878"></path>
                <path d="M380.40886,34.29872 L376.67386,41.85872 C372.49246,39.28112 367.24726,37.67912 363.06766,37.67912 C359.06266,37.67912 356.12866,39.01292 356.12866,42.39152 C356.12866,51.10712 381.29806,46.39472 381.210091,63.55772 C381.210091,73.25252 372.58066,77.61032 363.06766,77.61032 C356.12866,77.61032 348.74866,75.29732 344.03266,71.02952 L347.67946,63.73592 C351.77086,67.38272 358.35166,69.60572 363.51046,69.60572 C367.86826,69.60572 371.24866,68.09372 371.24866,64.53692 C371.24866,54.84392 346.34746,60.26732 346.43386,43.19252 C346.43386,33.58772 354.79486,29.49632 363.86506,29.49632 C369.82486,29.49632 376.13746,31.27472 380.40886,34.29872" id="Fill-15" fill="#787878"></path>
                <polygon id="Fill-17" fill="#787878" points="141.08716 103.38164 141.08716 110.10644 151.40836 110.10644 151.40836 112.35824 141.08716 112.35824 141.08716 119.37464 153.01576 119.37464 153.01576 121.59764 138.74896 121.59764 138.74896 101.13164 152.63596 101.13164 152.63596 103.38164"></polygon>
                <path d="M188.97688,102.94298 L187.98328,105.13538 C186.14008,103.90778 183.97828,103.41098 182.34028,103.41098 C179.71048,103.41098 177.98428,104.40458 177.98428,106.13078 C177.98428,111.39218 189.50428,108.64538 189.473741,116.07218 C189.473741,119.49218 186.46228,121.68638 182.07748,121.68638 C179.09488,121.68638 176.16988,120.39938 174.24028,118.55618 L175.29328,116.45198 C177.19408,118.29338 179.79688,119.34638 182.10628,119.34638 C185.05828,119.34638 186.90148,118.14758 186.90148,116.18738 C186.93028,110.80898 175.41028,113.67458 175.41028,106.33418 C175.41028,103.11938 178.24708,101.04218 182.48608,101.04218 C184.85488,101.04218 187.28128,101.80358 188.97688,102.94298" id="Fill-19" fill="#787878"></path>
                <path d="M215.23258,112.88438 L220.49578,112.88438 C224.17858,112.88438 226.31338,111.24638 226.31338,108.06038 C226.31338,104.96078 224.17858,103.38218 220.49578,103.38218 L215.23258,103.38218 L215.23258,112.88438 Z M220.58218,101.13038 C225.64018,101.13038 228.56518,103.64498 228.56518,108.00278 C228.56518,112.53338 225.64018,115.13618 220.58218,115.13618 L215.23258,115.13618 L215.23258,121.59818 L212.89258,121.59818 L212.89258,101.13038 L220.58218,101.13038 Z" id="Fill-21" fill="#787878"></path>
                <path d="M251.51554,111.36464 C251.51554,115.86644 255.31714,119.46464 259.87834,119.46464 C264.43954,119.46464 268.17994,115.86644 268.17994,111.36464 C268.17994,106.86104 264.43954,103.29344 259.87834,103.29344 C255.31714,103.29344 251.51554,106.86104 251.51554,111.36464 M270.57934,111.36464 C270.57934,117.12464 265.84174,121.71464 259.87834,121.71464 C253.88434,121.71464 249.14674,117.12464 249.14674,111.36464 C249.14674,105.57584 253.88434,101.07224 259.87834,101.07224 C265.84174,101.07224 270.57934,105.60284 270.57934,111.36464" id="Fill-23" fill="#787878"></path>
                <path d="M301.24666,112.88438 C304.96006,112.88438 307.06786,111.24638 307.06786,108.06038 C307.06786,104.96078 304.96006,103.38218 301.24666,103.38218 L295.80886,103.38218 L295.80886,112.88438 L301.24666,112.88438 Z M302.62366,115.07678 C302.18266,115.10558 301.71466,115.13618 301.24666,115.13618 L295.80886,115.13618 L295.80886,121.59818 L293.46886,121.59818 L293.46886,101.13038 L301.24666,101.13038 C306.36586,101.13038 309.31786,103.64498 309.31786,108.00278 C309.31786,111.39218 307.68166,113.67458 304.72786,114.63938 L309.52306,121.59818 L306.86266,121.59818 L302.62366,115.07678 Z" id="Fill-25" fill="#787878"></path>
                <polygon id="Fill-27" fill="#787878" points="339.45886 103.38164 339.45886 121.59764 337.12246 121.59764 337.12246 103.38164 330.45346 103.38164 330.45346 101.13164 346.15486 101.13164 346.15486 103.38164"></polygon>
                <path d="M380.74366,102.94298 L379.74826,105.13538 C377.90866,103.90778 375.74506,103.41098 374.10526,103.41098 C371.47366,103.41098 369.74926,104.40458 369.74926,106.13078 C369.74926,111.39218 381.26926,108.64538 381.240514,116.07218 C381.240514,119.49218 378.23086,121.68638 373.84246,121.68638 C370.85986,121.68638 367.93666,120.39938 366.00886,118.55618 L367.05826,116.45198 C368.96086,118.29338 371.56366,119.34638 373.87306,119.34638 C376.82506,119.34638 378.66826,118.14758 378.66826,116.18738 C378.69526,110.80898 367.17526,113.67458 367.17526,106.33418 C367.17526,103.11938 370.01386,101.04218 374.25286,101.04218 C376.61986,101.04218 379.04806,101.80358 380.74366,102.94298" id="Fill-29" fill="#787878"></path>
            </g>
        </g>
    </g>
</svg>